<?xml version="1.0" encoding="UTF-8" standalone="no"?>
<svg width="133px" height="129px" viewBox="0 0 133 129" version="1.1" xmlns="http://www.w3.org/2000/svg" xmlns:xlink="http://www.w3.org/1999/xlink" xmlns:sketch="http://www.bohemiancoding.com/sketch/ns">
    <!-- Generator: Sketch 3.3.3 (12072) - http://www.bohemiancoding.com/sketch -->
    <title>food</title>
    <desc>Created with Sketch.</desc>
    <defs></defs>
    <g id="All-Pages" stroke="none" stroke-width="1" fill="none" fill-rule="evenodd" sketch:type="MSPage">
        <g id="Homepage" sketch:type="MSArtboardGroup" transform="translate(-34.000000, -427.000000)">
            <g id="food" sketch:type="MSLayerGroup" transform="translate(38.000000, 429.000000)">
                <ellipse id="Oval" fill="#F15523" sketch:type="MSShapeGroup" cx="62.2177483" cy="60.2652663" rx="61.9655629" ry="60.0209948"></ellipse>
                <g id="Group" transform="translate(32.063576, 19.890679)" fill="#333333" sketch:type="MSShapeGroup">
                    <path d="M52.562649,0.209375563 L49.9687417,0.209375563 C45.7176159,0.209375563 42.2230464,3.5942805 42.2230464,7.71199991 L42.2230464,50.6688863 L51.7700662,50.6688863 L51.7700662,77.0153114 C51.7700662,78.9694833 53.4272848,80.5746959 55.4447682,80.5746959 L56.6696689,80.5746959 C58.6871523,80.5746959 60.3443709,78.9694833 60.3443709,77.0153114 L60.3443709,50.6688863 L60.3443709,31.8250856 L60.3443709,7.71199991 C60.3083444,3.55938458 56.8137748,0.209375563 52.562649,0.209375563 L52.562649,0.209375563 Z" id="Shape"></path>
                    <path d="M20.4630464,0.977085962 L20.4630464,21.7401627 L18.085298,21.7401627 L18.085298,0.977085962 L13.6900662,0.977085962 L13.6900662,21.7401627 L11.3123179,21.7401627 L11.3123179,0.977085962 L6.91708609,0.977085962 L6.91708609,21.7401627 L4.53933775,21.7401627 L4.53933775,0.977085962 L8.17124146e-14,0.977085962 L8.17124146e-14,24.3573572 C8.17124146e-14,29.3125789 3.60264901,33.4651942 8.3581457,34.5818639 L8.3581457,77.0153114 C8.3581457,78.9694833 10.0153642,80.5746959 12.0328477,80.5746959 L13.2577483,80.5746959 C15.2752318,80.5746959 16.9324503,78.9694833 16.9324503,77.0153114 L16.9324503,34.5469679 C21.7239735,33.4651942 25.290596,29.2776829 25.290596,24.3224613 L25.290596,0.942190035 L20.4630464,0.942190035 L20.4630464,0.977085962 Z" id="Shape"></path>
                </g>
            </g>
        </g>
    </g>
</svg>