<?xml version="1.0" encoding="utf-8"?>
<!-- Generator: Adobe Illustrator 19.1.0, SVG Export Plug-In . SVG Version: 6.00 Build 0)  -->
<svg version="1.1" id="Layer_1" xmlns:sketch="http://www.bohemiancoding.com/sketch/ns"
	 xmlns="http://www.w3.org/2000/svg" xmlns:xlink="http://www.w3.org/1999/xlink" x="0px" y="0px" viewBox="-239 332 133 129"
	 style="enable-background:new -239 332 133 129;" xml:space="preserve">
<style type="text/css">
	.st0{fill:#F15523;}
	.st1{fill:#333333;}
</style>
<title>food</title>
<desc>Created with Sketch.</desc>
<g id="All-Pages" sketch:type="MSPage">
	<g id="Homepage" transform="translate(-34.000000, -427.000000)" sketch:type="MSArtboardGroup">
		<g id="food" transform="translate(38.000000, 429.000000)" sketch:type="MSLayerGroup">
			<ellipse id="Oval" sketch:type="MSShapeGroup" class="st0" cx="-176.5" cy="394.5" rx="60" ry="60">
			</ellipse>
			<g id="Group" transform="translate(32.063576, 19.890679)" sketch:type="MSShapeGroup">
				<path id="Shape" class="st1" d="M-186.9,334.5h-2.5c-4.1,0-7.5,3.4-7.5,7.5v42.9h9.2v26.3c0,2,1.6,3.6,3.6,3.6h1.2
					c2,0,3.6-1.6,3.6-3.6v-26.3v-18.8V342C-179.4,337.8-182.7,334.5-186.9,334.5L-186.9,334.5z"/>
				<path id="Shape_1_" class="st1" d="M-217.9,335.2V356h-2.3v-20.8h-4.3V356h-2.3v-20.8h-4.3V356h-2.3v-20.8h-4.4v23.4
					c0,5,3.5,9.1,8.1,10.2v42.4c0,2,1.6,3.6,3.6,3.6h1.2c2,0,3.6-1.6,3.6-3.6v-42.5c4.6-1.1,8.1-5.3,8.1-10.2v-23.4L-217.9,335.2
					L-217.9,335.2z"/>
			</g>
		</g>
	</g>
</g>
</svg>
