<?xml version="1.0" encoding="UTF-8" standalone="no"?>
<svg width="28px" height="29px" viewBox="0 0 28 29" version="1.1" xmlns="http://www.w3.org/2000/svg" xmlns:xlink="http://www.w3.org/1999/xlink" xmlns:sketch="http://www.bohemiancoding.com/sketch/ns">
    <!-- Generator: Sketch 3.3.3 (12072) - http://www.bohemiancoding.com/sketch -->
    <title>gear</title>
    <desc>Created with Sketch.</desc>
    <defs></defs>
    <g id="All-Pages" stroke="none" stroke-width="1" fill="none" fill-rule="evenodd" sketch:type="MSPage">
        <g id="Homepage" sketch:type="MSArtboardGroup" transform="translate(-10.000000, -34.000000)" fill="#000000" opacity="0.2">
            <path d="M16.323816,60.469406 C15.8035551,59.9450805 15.2914232,59.4288841 14.7833559,58.9167522 C14.1330297,58.2623615 13.4827036,57.6120354 12.8283129,56.9657737 C12.7226349,56.8600957 12.7104412,56.7909986 12.7957965,56.6649979 C13.3038639,55.9130583 13.7997376,55.1570541 14.3118694,54.4051145 C14.4053538,54.2669202 14.3972247,54.1693712 14.315934,54.0311769 C13.9176092,53.3686571 13.5802525,52.6776856 13.4054773,51.9135523 C13.3932837,51.8525843 13.2957348,51.7834871 13.2307022,51.7712935 C12.4665689,51.6371637 11.6983711,51.511163 10.9301734,51.3851623 C10.8773344,51.3770333 10.8244954,51.3689042 10.7716564,51.3607751 C10.6131394,51.3282588 10.3814607,51.3485815 10.316428,51.2550971 C10.2310727,51.1331609 10.2717181,50.9218049 10.2717181,50.7470298 C10.2676536,49.3163122 10.2717181,47.8896592 10.2676536,46.4589416 C10.2676536,46.2963601 10.3123635,46.2394565 10.4790096,46.2231984 C11.3203691,46.1337785 12.157664,46.0281005 12.9990235,45.9346162 C13.1575405,45.918358 13.2388312,45.8533254 13.2997993,45.6988729 C13.5924461,44.9794496 13.9094801,44.2722199 14.2061914,43.5527966 C14.2305786,43.495893 14.2021269,43.3983441 14.165546,43.3414406 C13.6412206,42.544791 13.108766,41.752206 12.580376,40.9555565 C12.5641179,40.9311692 12.5519242,40.9108465 12.5478597,40.9027175 C13.7631567,39.6874204 14.9703247,38.4761879 16.1937508,37.2527618 C16.7140117,37.6348285 17.2586599,38.0331532 17.803308,38.4355426 C18.0756321,38.6347049 18.3520207,38.8298028 18.6202803,39.0370943 C18.7178292,39.1143205 18.7909909,39.1265141 18.904798,39.057417 C19.5835759,38.6468986 20.2867411,38.2892192 21.0752615,38.1185086 C21.1321651,38.1063149 21.2012622,38.0047015 21.2134559,37.9356043 C21.3801019,36.9763732 21.5386189,36.0130776 21.7012005,35.0538465 C21.705265,35.0335238 21.7133941,35.0132011 21.7215232,34.9806848 L26.7412283,34.9806848 C26.8103254,35.578172 26.875358,36.1675301 26.9444552,36.7609527 C26.9891651,37.1592775 27.025746,37.5576022 27.078585,37.9518625 C27.086714,38.0168951 27.1598757,38.1103795 27.2249083,38.1266376 C27.9890416,38.3461227 28.7125294,38.6631567 29.3953719,39.0696106 C29.4969854,39.1305786 29.5579535,39.110256 29.6433088,39.0492879 C30.460281,38.4477362 31.2813178,37.8461845 32.0779674,37.2608909 C33.2932644,38.4802525 34.5004323,39.6874204 35.727923,40.9149111 C35.5328251,41.1831706 35.3092755,41.488011 35.0857259,41.7928514 C34.7036592,42.3131123 34.3256572,42.8293087 33.9435905,43.3495696 C33.8826225,43.4308604 33.8622998,43.495893 33.9110742,43.601571 C34.2362373,44.3372525 34.5492068,45.0769985 34.8743699,45.8086155 C34.9028216,45.8695835 35.0003706,45.918358 35.0735323,45.9305516 C35.992118,46.0890686 36.9147682,46.2394565 37.8374185,46.393909 C37.8902575,46.4020381 37.9430965,46.4182962 38,46.4345544 L38,51.4501949 C37.5081908,51.5477439 37.0123171,51.6493573 36.5164434,51.7469063 C36.1994094,51.8119389 35.8783109,51.8688424 35.5612769,51.9460686 C35.4881152,51.9623268 35.3946308,52.039553 35.3743081,52.1086502 C35.154823,52.8687189 34.8418536,53.5840777 34.4394642,54.2628556 C34.3744316,54.3725982 34.3947543,54.4376308 34.4597869,54.5311152 C35.0247578,55.2952484 35.5815996,56.0593816 36.1425059,56.8235149 C36.1831513,56.8763539 36.2197321,56.9332574 36.2481839,56.9739028 C35.0328869,58.1891998 33.8257189,59.3923032 32.6063574,60.6116648 C32.5900992,60.5994712 32.5413247,60.575084 32.5006794,60.5466322 C31.720288,59.9735323 30.935832,59.4044969 30.1595052,58.8273324 C30.0660208,58.7582352 29.9969236,58.7460416 29.8912456,58.8110742 C29.2084031,59.2175281 28.505238,59.5711429 27.7248466,59.7540472 C27.667943,59.7662408 27.5947814,59.8597252 27.5825877,59.9288223 C27.4159417,60.8799243 27.2574247,61.8350909 27.0989077,62.7902575 C27.0948431,62.8146447 27.086714,62.8430965 27.078585,62.8837418 C27.0135523,62.8878064 26.9485197,62.8959355 26.8794226,62.8959355 C25.2820589,62.8959355 23.6806307,62.8959355 22.0832671,62.9 C21.9247501,62.9 21.8678466,62.8634192 21.8393948,62.6967731 C21.7012005,61.8147682 21.5426835,60.9368279 21.4085537,60.0507585 C21.3760374,59.8475316 21.2947466,59.7459181 21.0996488,59.6646273 C20.4086772,59.3882387 19.7339638,59.0793338 19.0470568,58.7948161 C18.9779597,58.7663643 18.8641526,58.786687 18.79912,58.8273324 C17.9821477,59.3638515 17.1651755,59.9084996 16.323816,60.469406 L16.323816,60.469406 Z M24.1196009,54.0514996 C27.0420041,54.0677578 29.3181457,51.8119389 29.3384684,48.8854711 C29.3587911,45.9346162 27.1232949,43.6666037 24.1846335,43.646281 C21.2175204,43.6300228 18.9495079,45.8573899 18.9373143,48.8082449 C18.9169916,51.767229 21.1646814,54.0352415 24.1196009,54.0514996 L24.1196009,54.0514996 Z" id="gear" sketch:type="MSShapeGroup"></path>
        </g>
    </g>
</svg>