<?xml version="1.0" encoding="utf-8"?>
<!-- Generator: Adobe Illustrator 19.1.0, SVG Export Plug-In . SVG Version: 6.00 Build 0)  -->
<svg version="1.1" id="Layer_1" xmlns:sketch="http://www.bohemiancoding.com/sketch/ns"
	 xmlns="http://www.w3.org/2000/svg" xmlns:xlink="http://www.w3.org/1999/xlink" x="0px" y="0px" viewBox="-267 359 76 76"
	 style="enable-background:new -267 359 76 76;" xml:space="preserve">
<style type="text/css">
	.st0{fill:#F15523;}
	.st1{fill:#FFFFFF;}
</style>
<title>map</title>
<desc>Created with Sketch.</desc>
<circle class="st0" cx="-229" cy="397" r="35.8"/>
<path id="Shape_1_" class="st1" d="M-216.5,376c-4.1,0-7.4,3.9-7.4,8c0,7.1,7.4,14.2,7.4,14.2s7.4-7.4,7.4-14.2
	C-209.1,379.9-212.4,376-216.5,376L-216.5,376z M-216.5,388.4c-2.5,0-4.5-2-4.5-4.5s2-4.5,4.5-4.5c2.5,0,4.5,2,4.5,4.5
	S-214,388.4-216.5,388.4L-216.5,388.4z"/>
<path id="Shape" class="st1" d="M-212.5,396.9c-0.6,0.8-1.2,1.6-1.8,2.2c0.7,1.3,1.3,2.5,1.5,3.1c0.1,0.1,0.1,0.3,0.2,0.4
	c-2,1-3.9,2-5.8,2.9c0-0.2-0.1-0.3-0.1-0.4c-0.5-2.6-1-5.3-1.6-7.9c-1.1-1.3-2.2-3-3.3-4.8c-1.9-1.3-3.9-2.6-5.8-3.9
	c-0.2-0.2-0.4-0.2-0.7,0c-2.3,1.6-4.6,3.1-6.9,4.7c-0.3,0.2-0.5,0.2-0.8-0.1c-1.5-1.5-2.9-3-4.4-4.5c-0.1-0.1-0.2-0.2-0.3-0.3
	c-0.1,0.2-0.2,0.3-0.2,0.5c-2.4,4.8-4.7,9.5-7.1,14.3c-0.1,0.2-0.2,0.4-0.3,0.6c0,0,0,0,0,0c3.2,1.6,6.5,3.3,9.7,4.9
	c0.1,0.1,0.3,0.2,0.4,0.2h0.2c0.4-0.2,0.7-0.4,1.1-0.6c2.9-1.5,5.8-2.9,8.7-4.4c0.2-0.1,0.4-0.2,0.6,0c3.2,1.6,6.5,3.3,9.7,4.9
	c0.1,0,0.1,0.1,0.2,0.1c0,0,0.1,0,0.2,0c1.2-0.6,2.4-1.2,3.6-1.8c2.2-1.1,4.3-2.2,6.5-3.3c0,0,0,0,0-0.1c-0.1-0.1-0.2-0.3-0.2-0.4
	C-210,401.9-211.3,399.4-212.5,396.9L-212.5,396.9z M-238.7,395.9c-0.6,3.1-1.2,6.3-1.9,9.4c0,0.1,0,0.1-0.1,0.2c-2-1-3.9-2-5.8-2.9
	c1.6-3.3,3.3-6.6,4.9-9.9c0.1,0.1,0.2,0.1,0.2,0.2c0.8,0.8,1.6,1.6,2.4,2.5C-238.8,395.5-238.7,395.8-238.7,395.9L-238.7,395.9z
	 M-231,401.7c-2.2,1.1-4.4,2.2-6.7,3.3c-0.1,0-0.1,0-0.2,0.1c0.2-1,0.4-2,0.6-3c0.4-2,0.8-3.9,1.2-5.9c0-0.2,0.1-0.3,0.2-0.4
	c1.6-1.1,3.3-2.2,4.9-3.3c0,0,0.1,0,0.2-0.1v0.4v8.4C-230.8,401.4-230.8,401.5-231,401.7L-231,401.7z M-221.2,405.1
	c-0.1,0-0.2-0.1-0.3-0.1c-2.1-1.1-4.3-2.2-6.4-3.2c-0.2-0.1-0.3-0.2-0.3-0.4c0-2.9,0-5.8,0-8.7c0-0.1,0-0.1,0-0.3
	c1.7,1.2,3.4,2.3,5.1,3.4c0.1,0.1,0.2,0.2,0.2,0.3c0.6,3,1.2,5.9,1.8,8.9C-221.1,405-221.1,405-221.2,405.1L-221.2,405.1z"/>
</svg>
