<?xml version="1.0" encoding="UTF-8" standalone="no"?>
<svg width="76px" height="76px" viewBox="0 0 76 76" version="1.1" xmlns="http://www.w3.org/2000/svg" xmlns:xlink="http://www.w3.org/1999/xlink" xmlns:sketch="http://www.bohemiancoding.com/sketch/ns">
    <!-- Generator: Sketch 3.3.3 (12072) - http://www.bohemiancoding.com/sketch -->
    <title>map</title>
    <desc>Created with Sketch.</desc>
    <defs>
        <filter x="-50%" y="-50%" width="200%" height="200%" filterUnits="objectBoundingBox" id="filter-1">
            <feOffset dx="0" dy="2" in="SourceAlpha" result="shadowOffsetOuter1"></feOffset>
            <feGaussianBlur stdDeviation="2" in="shadowOffsetOuter1" result="shadowBlurOuter1"></feGaussianBlur>
            <feColorMatrix values="0 0 0 0 0   0 0 0 0 0   0 0 0 0 0  0 0 0 0.35 0" in="shadowBlurOuter1" type="matrix" result="shadowMatrixOuter1"></feColorMatrix>
            <feMerge>
                <feMergeNode in="shadowMatrixOuter1"></feMergeNode>
                <feMergeNode in="SourceGraphic"></feMergeNode>
            </feMerge>
        </filter>
        <filter x="-50%" y="-50%" width="200%" height="200%" filterUnits="objectBoundingBox" id="filter-2">
            <feOffset dx="0" dy="1" in="SourceAlpha" result="shadowOffsetInner1"></feOffset>
            <feGaussianBlur stdDeviation="0.5" in="shadowOffsetInner1" result="shadowBlurInner1"></feGaussianBlur>
            <feComposite in="shadowBlurInner1" in2="SourceAlpha" operator="arithmetic" k2="-1" k3="1" result="shadowInnerInner1"></feComposite>
            <feColorMatrix values="0 0 0 0 0   0 0 0 0 0   0 0 0 0 0  0 0 0 0.35 0" in="shadowInnerInner1" type="matrix" result="shadowMatrixInner1"></feColorMatrix>
            <feMerge>
                <feMergeNode in="SourceGraphic"></feMergeNode>
                <feMergeNode in="shadowMatrixInner1"></feMergeNode>
            </feMerge>
        </filter>
        <filter x="-50%" y="-50%" width="200%" height="200%" filterUnits="objectBoundingBox" id="filter-3">
            <feOffset dx="0" dy="1" in="SourceAlpha" result="shadowOffsetInner1"></feOffset>
            <feGaussianBlur stdDeviation="0.5" in="shadowOffsetInner1" result="shadowBlurInner1"></feGaussianBlur>
            <feComposite in="shadowBlurInner1" in2="SourceAlpha" operator="arithmetic" k2="-1" k3="1" result="shadowInnerInner1"></feComposite>
            <feColorMatrix values="0 0 0 0 0   0 0 0 0 0   0 0 0 0 0  0 0 0 0.35 0" in="shadowInnerInner1" type="matrix" result="shadowMatrixInner1"></feColorMatrix>
            <feMerge>
                <feMergeNode in="SourceGraphic"></feMergeNode>
                <feMergeNode in="shadowMatrixInner1"></feMergeNode>
            </feMerge>
        </filter>
    </defs>
    <g id="All-Pages" stroke="none" stroke-width="1" fill="none" fill-rule="evenodd" sketch:type="MSPage">
        <g id="Show-Me-Restaurants" sketch:type="MSArtboardGroup" transform="translate(-255.000000, -864.000000)">
            <g id="map" sketch:type="MSLayerGroup" transform="translate(259.000000, 866.000000)">
                <circle id="Oval-91" fill="#F15523" filter="url(#filter-1)" sketch:type="MSShapeGroup" cx="34" cy="34" r="34"></circle>
                <g id="Group" transform="translate(13.000000, 15.000000)" fill="#FFFFFF" sketch:type="MSShapeGroup">
                    <path d="M37.522179,20.940146 C36.8840467,21.7751825 36.277821,22.5218978 35.7354086,23.1562044 C36.3974708,24.4810219 36.9957198,25.6773723 37.2669261,26.2233577 C37.3307393,26.3518248 37.3865759,26.480292 37.4583658,26.6328467 C35.4961089,27.620438 33.5657588,28.5919708 31.6194553,29.5715328 C31.579572,29.4109489 31.5396887,29.2985401 31.5237354,29.1781022 C30.9972763,26.5364964 30.4787938,23.8948905 29.9523346,21.2532847 C28.8914397,19.9043796 27.7348249,18.2905109 26.6659533,16.5 C24.7276265,15.1832117 22.7733463,13.8905109 20.8350195,12.5737226 C20.5877432,12.4051095 20.4282101,12.3970803 20.1729572,12.5656934 C17.8677043,14.1313869 15.5544747,15.6649635 13.2571984,17.2306569 C12.9142023,17.4635036 12.7466926,17.4153285 12.4754864,17.1423358 C11.0157588,15.6408759 9.53210117,14.1635036 8.05642023,12.6781022 C7.96070039,12.5817518 7.85700389,12.4854015 7.73735409,12.3729927 C7.64163424,12.5656934 7.5618677,12.710219 7.49007782,12.8467153 C5.12101167,17.6160584 2.75194553,22.3773723 0.382879377,27.1467153 C0.287159533,27.3474453 0.167509728,27.540146 0.0638132296,27.7328467 C0.0717898833,27.7569343 0.0717898833,27.7649635 0.079766537,27.7810219 C3.31828794,29.4189781 6.55680934,31.0489051 9.80330739,32.6868613 C9.94688716,32.7591241 10.0745136,32.8394161 10.2101167,32.919708 L10.3616732,32.919708 C10.7365759,32.7189781 11.1114786,32.5182482 11.4863813,32.3255474 C14.3819066,30.8642336 17.2694553,29.4109489 20.1649805,27.949635 C20.3564202,27.8532847 20.52393,27.7970803 20.7472763,27.9094891 C23.977821,29.5474453 27.2163424,31.1773723 30.4548638,32.8072993 C30.5107004,32.8313869 30.5585603,32.879562 30.6143969,32.9116788 C30.6622568,32.9116788 30.72607,32.919708 30.77393,32.919708 C31.9784047,32.3014599 33.1828794,31.6832117 34.3873541,31.0729927 C36.5649805,29.9729927 38.7346304,28.8729927 40.9122568,27.7810219 C40.9202335,27.7569343 40.9202335,27.7489051 40.9282101,27.7248175 C40.8484436,27.5883212 40.7607004,27.459854 40.6968872,27.3233577 C40.0108949,25.9262774 38.742607,23.3890511 37.522179,20.940146 L37.522179,20.940146 Z M11.2949416,19.9043796 C10.6807393,23.0518248 10.0505837,26.1912409 9.42042802,29.3306569 C9.40447471,29.3948905 9.3885214,29.4591241 9.36459144,29.5554745 C7.41031128,28.5759124 5.47996109,27.6043796 3.51770428,26.6167883 C5.15291829,23.3167883 6.78015564,20.0489051 8.41536965,16.7489051 C8.51108949,16.8291971 8.59883268,16.8854015 8.66264591,16.949635 C9.48424125,17.7686131 10.3058366,18.5875912 11.1114786,19.4226277 C11.2311284,19.5430657 11.3268482,19.759854 11.2949416,19.9043796 L11.2949416,19.9043796 Z M18.9924125,25.6532847 C16.7669261,26.7613139 14.5494163,27.8773723 12.3319066,28.9934307 C12.27607,29.0175182 12.2202335,29.0335766 12.1085603,29.0737226 C12.3079767,28.0379562 12.4994163,27.0423358 12.6988327,26.0547445 C13.0896887,24.0875912 13.4805447,22.1284672 13.8793774,20.1693431 C13.911284,20.0167883 14.0070039,19.8321168 14.1266537,19.7518248 C15.7618677,18.6357664 17.413035,17.5357664 19.0562257,16.4357664 C19.0881323,16.4116788 19.1280156,16.4116788 19.2157588,16.379562 L19.2157588,16.7408759 L19.2157588,25.1635036 C19.2237354,25.3722628 19.2396887,25.5328467 18.9924125,25.6532847 L18.9924125,25.6532847 Z M28.8435798,29.0656934 C28.7319066,29.0175182 28.6282101,28.9773723 28.5324903,28.9291971 C26.3867704,27.8532847 24.2410506,26.7693431 22.0873541,25.6934307 C21.9038911,25.6051095 21.7682879,25.5248175 21.7682879,25.259854 C21.7842412,22.3693431 21.7762646,19.4868613 21.7762646,16.5963504 C21.7762646,16.5321168 21.7842412,16.4759124 21.7922179,16.3394161 C23.5311284,17.5036496 25.2142023,18.6277372 26.8892996,19.759854 C26.9850195,19.8240876 27.0727626,19.9605839 27.0966926,20.0729927 C27.686965,23.0277372 28.2772374,25.9905109 28.8595331,28.9532847 C28.8675097,28.9773723 28.8515564,29.0094891 28.8435798,29.0656934 L28.8435798,29.0656934 Z" id="Shape" filter="url(#filter-2)"></path>
                    <path d="M33.5019455,0 C29.4258755,0 26.1315175,3.94233577 26.1315175,8.03722628 C26.1315175,15.1270073 33.5019455,22.2408759 33.5019455,22.2408759 C33.5019455,22.2408759 40.8723735,14.8781022 40.8723735,8.03722628 C40.8723735,3.94233577 37.5780156,0 33.5019455,0 L33.5019455,0 Z M33.5019455,12.3649635 C31.0371595,12.3649635 29.0350195,10.349635 29.0350195,7.86861314 C29.0350195,5.38759124 31.0371595,3.37226277 33.5019455,3.37226277 C35.9667315,3.37226277 37.9688716,5.38759124 37.9688716,7.86861314 C37.9688716,10.349635 35.9667315,12.3649635 33.5019455,12.3649635 L33.5019455,12.3649635 Z" id="Shape" filter="url(#filter-3)"></path>
                </g>
            </g>
        </g>
    </g>
</svg>