<?xml version="1.0" encoding="UTF-8" standalone="no"?>
<svg width="29px" height="29px" viewBox="0 0 29 29" version="1.1" xmlns="http://www.w3.org/2000/svg" xmlns:xlink="http://www.w3.org/1999/xlink" xmlns:sketch="http://www.bohemiancoding.com/sketch/ns">
    <!-- Generator: Sketch 3.3.3 (12072) - http://www.bohemiancoding.com/sketch -->
    <title>orange-gear</title>
    <desc>Created with Sketch.</desc>
    <defs></defs>
    <g id="All-Pages" stroke="none" stroke-width="1" fill="none" fill-rule="evenodd" sketch:type="MSPage">
        <g id="Settings" sketch:type="MSArtboardGroup" transform="translate(-17.500000, -38.000000)" fill="#F15523">
            <g id="Set-Your-Location-+-Shape-Copy" sketch:type="MSLayerGroup" transform="translate(18.000000, 38.000000)">
                <path d="M6.06176959,26.469406 C5.54150866,25.9450805 5.02937681,25.4288841 4.52130949,24.9167522 C3.87098332,24.2623615 3.22065716,23.6120354 2.56626645,22.9657737 C2.46058845,22.8600957 2.44839484,22.7909986 2.53375015,22.6649979 C3.04181746,21.9130583 3.53769116,21.1570541 4.04982302,20.4051145 C4.14330741,20.2669202 4.13517833,20.1693712 4.05388756,20.0311769 C3.65556278,19.3686571 3.31820608,18.6776856 3.14343093,17.9135523 C3.13123731,17.8525843 3.03368839,17.7834871 2.96865577,17.7712935 C2.20452252,17.6371637 1.43632474,17.511163 0.668126958,17.3851623 C0.615287957,17.3770333 0.562448956,17.3689042 0.509609955,17.3607751 C0.351092953,17.3282588 0.119414256,17.3485815 0.0543816396,17.2550971 C-0.0309736696,17.1331609 0.00967171573,16.9218049 0.00967171573,16.7470298 C0.00560717719,15.3163122 0.00967171573,13.8896592 0.00560717719,12.4589416 C0.00560717719,12.2963601 0.0503171011,12.2394565 0.216963181,12.2231984 C1.05832266,12.1337785 1.8956176,12.0281005 2.73697707,11.9346162 C2.89549408,11.918358 2.97678485,11.8533254 3.03775292,11.6988729 C3.3303997,10.9794496 3.6474337,10.2722199 3.94414502,9.55279658 C3.96853225,9.49589304 3.94008048,9.39834411 3.90349963,9.34144057 C3.37917416,8.54479102 2.84671961,7.752206 2.3183296,6.95555645 C2.30207145,6.93116922 2.28987783,6.91084653 2.2858133,6.90271745 C3.50111032,5.68742043 4.70827826,4.47618795 5.93170436,3.25276185 C6.45196529,3.63482847 6.99661346,4.03315325 7.54126162,4.43554256 C7.8135857,4.63470495 8.08997432,4.8298028 8.35823387,5.03709426 C8.45578279,5.1143205 8.52894448,5.12651411 8.64275156,5.05741696 C9.3215295,4.64689856 10.0246947,4.28921917 10.8132151,4.11850855 C10.8701187,4.10631494 10.9392158,4.00470148 10.9514095,3.93560432 C11.1180555,2.97637323 11.2765725,2.01307759 11.4391541,1.0538465 C11.4432186,1.03352381 11.4513477,1.01320111 11.4594768,0.980684806 L16.4791819,0.980684806 C16.548279,1.57817197 16.6133116,2.16753006 16.6824088,2.76095268 C16.7271187,3.15927746 16.7636996,3.55760224 16.8165386,3.95186247 C16.8246676,4.01689509 16.8978293,4.11037948 16.9628619,4.12663763 C17.7269952,4.34612271 18.450483,4.66315672 19.1333255,5.06961057 C19.234939,5.13057865 19.2959071,5.11025596 19.3812624,5.04928788 C20.1982346,4.44773618 21.0192714,3.84618447 21.815921,3.26089092 C23.031218,4.48025248 24.2383859,5.68742043 25.4658766,6.91491107 C25.2707787,7.18317061 25.0472291,7.488011 24.8236795,7.79285139 C24.4416128,8.31311232 24.0636108,8.82930872 23.6815441,9.34956965 C23.6205761,9.43086042 23.6002534,9.49589304 23.6490278,9.60157104 C23.9741909,10.3372525 24.2871604,11.0769985 24.6123235,11.8086155 C24.6407752,11.8695835 24.7383242,11.918358 24.8114859,11.9305516 C25.7300716,12.0890686 26.6527218,12.2394565 27.5753721,12.393909 C27.6282111,12.4020381 27.6810501,12.4182962 27.7379536,12.4345544 L27.7379536,17.4501949 C27.2461444,17.5477439 26.7502707,17.6493573 26.254397,17.7469063 C25.937363,17.8119389 25.6162645,17.8688424 25.2992305,17.9460686 C25.2260688,17.9623268 25.1325844,18.039553 25.1122617,18.1086502 C24.8927766,18.8687189 24.5798072,19.5840777 24.1774178,20.2628556 C24.1123852,20.3725982 24.1327079,20.4376308 24.1977405,20.5311152 C24.7627114,21.2952484 25.3195532,22.0593816 25.8804595,22.8235149 C25.9211049,22.8763539 25.9576857,22.9332574 25.9861375,22.9739028 C24.7708405,24.1891998 23.5636725,25.3923032 22.344311,26.6116648 C22.3280528,26.5994712 22.2792783,26.575084 22.238633,26.5466322 C21.4582416,25.9735323 20.6737856,25.4044969 19.8974588,24.8273324 C19.8039744,24.7582352 19.7348772,24.7460416 19.6291992,24.8110742 C18.9463567,25.2175281 18.2431916,25.5711429 17.4628002,25.7540472 C17.4058966,25.7662408 17.332735,25.8597252 17.3205413,25.9288223 C17.1538953,26.8799243 16.9953783,27.8350909 16.8368612,28.7902575 C16.8327967,28.8146447 16.8246676,28.8430965 16.8165386,28.8837418 C16.7515059,28.8878064 16.6864733,28.8959355 16.6173762,28.8959355 C15.0200125,28.8959355 13.4185843,28.8959355 11.8212207,28.9 C11.6627037,28.9 11.6058002,28.8634192 11.5773484,28.6967731 C11.4391541,27.8147682 11.2806371,26.9368279 11.1465073,26.0507585 C11.113991,25.8475316 11.0327002,25.7459181 10.8376024,25.6646273 C10.1466308,25.3882387 9.47191742,25.0793338 8.78501041,24.7948161 C8.71591326,24.7663643 8.60210618,24.786687 8.53707356,24.8273324 C7.72010132,25.3638515 6.90312907,25.9084996 6.06176959,26.469406 L6.06176959,26.469406 Z M13.8575545,20.0514996 C16.7799577,20.0677578 19.0560993,17.8119389 19.076422,14.8854711 C19.0967447,11.9346162 16.8612485,9.66660365 13.9225871,9.64628096 C10.955474,9.63002281 8.68746149,11.8573899 8.67526787,14.8082449 C8.65494518,17.767229 10.902635,20.0352415 13.8575545,20.0514996 L13.8575545,20.0514996 Z" id="orange-gear" sketch:type="MSShapeGroup"></path>
            </g>
        </g>
    </g>
</svg>