<?xml version="1.0" encoding="utf-8"?>
<!-- Generator: Adobe Illustrator 19.1.0, SVG Export Plug-In . SVG Version: 6.00 Build 0)  -->
<svg version="1.1" id="Layer_1" xmlns:sketch="http://www.bohemiancoding.com/sketch/ns"
	 xmlns="http://www.w3.org/2000/svg" xmlns:xlink="http://www.w3.org/1999/xlink" x="0px" y="0px" viewBox="-239 332 133 129"
	 style="enable-background:new -239 332 133 129;" xml:space="preserve">
<style type="text/css">
	.st0{fill:#F15523;}
	.st1{fill:#333333;}
	.st2{fill:#FFFFFF;}
</style>
<title>restaurants</title>
<desc>Created with Sketch.</desc>
<g id="All-Pages" sketch:type="MSPage">
	<g id="Homepage" transform="translate(-192.000000, -427.000000)" sketch:type="MSArtboardGroup">
		<g id="restaurants" transform="translate(196.000000, 429.000000)" sketch:type="MSLayerGroup">
			<ellipse id="Oval" sketch:type="MSShapeGroup" class="st0" cx="-176.5" cy="394.5" rx="60" ry="60">
			</ellipse>
			<g id="Group" transform="translate(19.454305, 15.005249)" sketch:type="MSShapeGroup">
				<path id="Shape" class="st1" d="M-159,353.4c-0.5-0.1-1-0.3-1.5-0.6l-31.9-17.5c-1.9-1-4.2-1-6.1,0l-32.1,17.5
					c-0.5,0.2-1,0.4-1.5,0.6c-1.2,0.3-2,1.3-2,2.6v30.2v14.4v7.2c0,1,0.8,1.9,1.9,1.9h25.5v-23.3c0-0.6,0.5-1,1-1h19.9
					c0.6,0,1,0.5,1,1v23.3h26.1c1,0,1.9-0.8,1.9-1.9v-7.2v-14.4V356C-157,354.8-157.8,353.7-159,353.4L-159,353.4z"/>
				<g id="Shape_1_" transform="translate(0.000000, 18.843801)">
					<path class="st2" d="M-232,354.4h-2.5c-1.4,0-2.6-1.2-2.6-2.6v-14.8c0-1.4,1.2-2.6,2.6-2.6h2.5c1.4,0,2.6,1.2,2.6,2.6v14.8
						C-229.4,353.3-230.6,354.4-232,354.4L-232,354.4z"/>
					<path class="st0" d="M-224.5,354.4h-2.5c-1.4,0-2.6-1.2-2.6-2.6v-14.8c0-1.4,1.2-2.6,2.6-2.6h2.5c1.4,0,2.6,1.2,2.6,2.6v14.8
						C-221.9,353.3-223.1,354.4-224.5,354.4L-224.5,354.4z"/>
					<path class="st2" d="M-217.1,354.4h-2.5c-1.4,0-2.6-1.2-2.6-2.6v-14.8c0-1.4,1.2-2.6,2.6-2.6h2.5c1.4,0,2.6,1.2,2.6,2.6v14.8
						C-214.5,353.3-215.7,354.4-217.1,354.4L-217.1,354.4z"/>
					<path class="st0" d="M-209.6,354.4h-2.5c-1.4,0-2.6-1.2-2.6-2.6v-14.8c0-1.4,1.2-2.6,2.6-2.6h2.5c1.4,0,2.6,1.2,2.6,2.6v14.8
						C-207,353.3-208.2,354.4-209.6,354.4L-209.6,354.4z"/>
					<path class="st2" d="M-202.2,354.4h-2.5c-1.4,0-2.6-1.2-2.6-2.6v-14.8c0-1.4,1.2-2.6,2.6-2.6h2.5c1.4,0,2.6,1.2,2.6,2.6v14.8
						C-199.6,353.3-200.7,354.4-202.2,354.4L-202.2,354.4z"/>
					<path class="st0" d="M-194.7,354.4h-2.5c-1.4,0-2.6-1.2-2.6-2.6v-14.8c0-1.4,1.2-2.6,2.6-2.6h2.5c1.4,0,2.6,1.2,2.6,2.6v14.8
						C-192.1,353.3-193.3,354.4-194.7,354.4L-194.7,354.4z"/>
					<path class="st2" d="M-187.3,354.4h-2.5c-1.4,0-2.6-1.2-2.6-2.6v-14.8c0-1.4,1.2-2.6,2.6-2.6h2.5c1.4,0,2.6,1.2,2.6,2.6v14.8
						C-184.7,353.3-185.8,354.4-187.3,354.4L-187.3,354.4z"/>
					<path class="st0" d="M-179.8,354.4h-2.5c-1.4,0-2.6-1.2-2.6-2.6v-14.8c0-1.4,1.2-2.6,2.6-2.6h2.5c1.4,0,2.6,1.2,2.6,2.6v14.8
						C-177.2,353.3-178.4,354.4-179.8,354.4L-179.8,354.4z"/>
					<path class="st2" d="M-172.3,354.4h-2.5c-1.4,0-2.6-1.2-2.6-2.6v-14.8c0-1.4,1.2-2.6,2.6-2.6h2.5c1.4,0,2.6,1.2,2.6,2.6v14.8
						C-169.8,353.3-170.9,354.4-172.3,354.4L-172.3,354.4z"/>
					<path class="st0" d="M-164.9,354.4h-2.5c-1.4,0-2.6-1.2-2.6-2.6v-14.8c0-1.4,1.2-2.6,2.6-2.6h2.5c1.4,0,2.6,1.2,2.6,2.6v14.8
						C-162.3,353.3-163.4,354.4-164.9,354.4L-164.9,354.4z"/>
					<path class="st2" d="M-157.4,354.4h-2.5c-1.4,0-2.6-1.2-2.6-2.6v-14.8c0-1.4,1.2-2.6,2.6-2.6h2.5c1.4,0,2.6,1.2,2.6,2.6v14.8
						C-154.8,353.3-156,354.4-157.4,354.4L-157.4,354.4z"/>
				</g>
			</g>
		</g>
	</g>
</g>
</svg>
